<svg width="150" height="51" viewBox="0 0 150 51" fill="none" xmlns="http://www.w3.org/2000/svg">
<mask id="mask0_13_6" style="mask-type:alpha" maskUnits="userSpaceOnUse" x="0" y="0" width="150" height="51">
<rect width="150" height="51" fill="white"/>
</mask>
<g mask="url(#mask0_13_6)">
<path d="M11.688 33.096L12.64 26.768H31.456L32.408 33.096H11.688ZM21.936 15.512L16.056 29.008L16.224 30.8L11.072 42H2.056L21.936 0.503997L41.816 42H32.744L27.704 31.136L27.816 29.12L21.936 15.512ZM53.1958 33.096L54.1478 26.768H72.9638L73.9158 33.096H53.1958ZM63.4438 15.512L57.5638 29.008L57.7318 30.8L52.5798 42H43.5638L63.4438 0.503997L83.3238 42H74.2518L69.2118 31.136L69.3238 29.12L63.4438 15.512Z" fill="black"/>
<path d="M107.904 2.8H114.904L91.3843 50.4H84.1603L107.904 2.8ZM137.366 27.552L119.39 20.048V12.936L147.95 24.976V29.68L119.39 41.776V34.664L137.366 27.552Z" fill="#29A587"/>
</g>
</svg>
